<svg xmlns="http://www.w3.org/2000/svg" xmlns:svg="http://www.w3.org/2000/svg" xmlns:xlink="http://www.w3.org/1999/xlink" id="svg848" width="22" height="22" version="1.1" viewBox="0 0 5.821 5.821"><defs id="defs842"><radialGradient id="radialGradient1649" cx="9.53" cy="3.397" r="2.778" fx="9.53" fy="3.397" gradientTransform="matrix(0.99999997,0,0,1.0258555,-6.6195764,-0.57442563)" gradientUnits="userSpaceOnUse" xlink:href="#linearGradient1647"/><linearGradient id="linearGradient1647"><stop id="stop1643" offset="0" style="stop-color:#0f6;stop-opacity:1"/><stop id="stop1645" offset="1" style="stop-color:#00d455;stop-opacity:1"/></linearGradient><radialGradient id="radialGradient1824" cx="11" cy="11" r="8" fx="11" fy="11" gradientTransform="matrix(0.26458331,0,0,0.26457739,6.5115772e-5,4.7515801e-5)" gradientUnits="userSpaceOnUse" xlink:href="#linearGradient1820"/><linearGradient id="linearGradient1820"><stop id="stop1816" offset="0" style="stop-color:#0f6;stop-opacity:.99830526"/><stop id="stop1818" offset="1" style="stop-color:#77a67d;stop-opacity:1"/></linearGradient></defs><metadata id="metadata845"/><g id="layer1"><path style="opacity:1;fill:url(#radialGradient1824);fill-opacity:1;stroke:#052;stroke-width:.1;stroke-miterlimit:4;stroke-dasharray:none;stroke-opacity:1" id="path1822" d="M 2.6298792,0.84385852 V 2.860273 h 0.561206 V 0.84385852 Z m 1.206644,0.21910808 v 0.6046142 a 1.5499478,1.549969 0 0 1 0.6232179,1.2076785 l 5.292e-4,0.03514 A 1.5499478,1.549969 0 0 1 2.9197832,4.4601752 1.5499478,1.549969 0 0 1 1.3607052,2.927969 1.5499478,1.549969 0 0 1 1.9844402,1.667064 V 1.0634832 A 2.0666003,2.0666281 0 0 0 0.84394122,2.9341703 2.0666003,2.0666281 0 0 0 2.9223672,4.9769395 2.0666003,2.0666281 0 0 0 4.9770221,2.9103991 L 4.976493,2.8633741 A 2.0666003,2.0666281 0 0 0 3.8365232,1.0629666 Z"/></g></svg>