<svg xmlns="http://www.w3.org/2000/svg" xmlns:svg="http://www.w3.org/2000/svg" xmlns:xlink="http://www.w3.org/1999/xlink" id="svg848" width="22" height="22" version="1.1" viewBox="0 0 5.821 5.821"><defs id="defs842"><radialGradient id="radialGradient1649" cx="9.53" cy="3.397" r="2.778" fx="9.53" fy="3.397" gradientTransform="matrix(0.99999997,0,0,1.0258555,-6.6195764,-0.57442563)" gradientUnits="userSpaceOnUse" xlink:href="#linearGradient1647"/><linearGradient id="linearGradient1647"><stop id="stop1643" offset="0" style="stop-color:#0f6;stop-opacity:1"/><stop id="stop1645" offset="1" style="stop-color:#00d455;stop-opacity:1"/></linearGradient><radialGradient id="radialGradient1832" cx="11" cy="11" r="8" fx="11" fy="11" gradientTransform="matrix(0.26458332,0,0,0.2645774,6.4975326e-5,4.7555506e-5)" gradientUnits="userSpaceOnUse" xlink:href="#linearGradient1830"/><linearGradient id="linearGradient1830"><stop style="stop-color:red;stop-opacity:1" id="stop1826" offset="0"/><stop style="stop-color:#a72525;stop-opacity:1" id="stop1828" offset="1"/></linearGradient></defs><metadata id="metadata845"/><g id="layer1"><path id="path1725" d="M 2.6298786,0.84385854 V 2.8602729 H 3.1910847 V 0.84385854 Z M 3.8365232,1.0629666 v 0.6046143 a 1.5499478,1.549969 0 0 1 0.6232182,1.2076783 l 5.291e-4,0.03514 A 1.5499478,1.549969 0 0 1 2.9197834,4.4601752 1.5499478,1.549969 0 0 1 1.3607055,2.927969 1.5499478,1.549969 0 0 1 1.98444,1.6670641 V 1.0634834 A 2.0666003,2.0666281 0 0 0 0.84394122,2.9341703 2.0666003,2.0666281 0 0 0 2.9223673,4.9769395 2.0666003,2.0666281 0 0 0 4.9770221,2.9103991 L 4.976493,2.8633736 A 2.0666003,2.0666281 0 0 0 3.8365232,1.0629666 Z" style="opacity:1;fill:url(#radialGradient1832);fill-opacity:1;stroke:maroon;stroke-width:.1;stroke-miterlimit:4;stroke-dasharray:none;stroke-opacity:1"/></g></svg>