<svg xmlns="http://www.w3.org/2000/svg" xmlns:svg="http://www.w3.org/2000/svg" xmlns:xlink="http://www.w3.org/1999/xlink" id="svg848" width="22" height="22" version="1.1" viewBox="0 0 5.821 5.821"><defs id="defs842"><radialGradient id="radialGradient1649" cx="9.53" cy="3.397" r="2.778" fx="9.53" fy="3.397" gradientTransform="matrix(0.99999997,0,0,1.0258555,-6.6195764,-0.57442563)" gradientUnits="userSpaceOnUse" xlink:href="#linearGradient1647"/><linearGradient id="linearGradient1647"><stop id="stop1643" offset="0" style="stop-color:#0f6;stop-opacity:1"/><stop id="stop1645" offset="1" style="stop-color:#00d455;stop-opacity:1"/></linearGradient></defs><metadata id="metadata845"/><g id="layer1"><g id="Layer_x0020_1" transform="matrix(15.839176,0,0,15.839176,0.79374673,0.85760167)" style="clip-rule:evenodd;opacity:1;fill:#fff;fill-rule:evenodd;stroke:none;stroke-width:.0167044;stroke-miterlimit:4;stroke-dasharray:none;stroke-opacity:1;image-rendering:optimizeQuality;shape-rendering:geometricPrecision;text-rendering:geometricPrecision"><metadata id="CorelCorpID_0Corel-Layer"/><path id="path7" d="M 0.26727,0.111367 0.2313736,0.1017138 0.2211725,0.0789915 C 0.2270835,0.0704575 0.2368648,0.0557795 0.2405314,0.0490876 L 0.2139793,0.0240511 C 0.2036499,0.03043993 0.1918924,0.0383968 0.1805021,0.0459224 0.17210802,0.04108414 0.167433,0.03868833 0.1606361,0.0342465 0.15765154,0.0212357 0.15680047,0.0171202 0.15276082,4.06e-5 c -0.0127485,-5.2463e-5 -0.0255029,-5.2463e-5 -0.0382514,0 -0.004045,0.0170796 -0.004897,0.0211951 -0.007881,0.0342059 C 0.09983732,0.0386884 0.09515652,0.0410842 0.08676822,0.0459224 0.07537201,0.03839687 0.06361441,0.03044 0.05329091,0.0240511 l -0.0265521,0.0250365 c 0.0036666,0.0066919 0.0134422,0.0213699 0.0193589,0.0299039 L 0.03589071,0.1017138 2.1e-7,0.111367 v 0.0364735 l 0.0358905,0.009653 0.010207,0.0227223 c -0.0059167,0.008534 -0.0156923,0.023212 -0.0193589,0.0299039 l 0.0265521,0.0250365 c 0.0103236,-0.006389 0.0220811,-0.0143399 0.0334772,-0.0218713 0.0083882,0.004838 0.0130691,0.007234 0.0198602,0.0116759 0.002985,0.0130108 0.003836,0.0171263 0.007881,0.0342059 0.0127485,5.246e-5 0.0255029,5.246e-5 0.0382514,0 0.00404,-0.0170796 0.004891,-0.0211951 0.007875,-0.0342059 0.006797,-0.004442 0.0114719,-0.006838 0.019866,-0.0116759 0.0113903,0.007531 0.0231479,0.0154824 0.0334772,0.0218713 L 0.2405314,0.2101199 C 0.23686482,0.20342795 0.2270834,0.18875 0.2211725,0.180216 L 0.2313736,0.1574937 0.26727,0.1478405 Z M 0.133635,0.0801165 c 0.0273332,0 0.0494843,0.0221511 0.0494843,0.0494843 0,0.0273332 -0.0221511,0.0494843 -0.0494843,0.0494843 -0.0273332,0 -0.0494843,-0.0221511 -0.0494843,-0.0494843 0,-0.0273332 0.0221511,-0.0494843 0.0494843,-0.0494843 z" class="fil0" style="fill:#fff;stroke:none;stroke-width:.0167044;stroke-miterlimit:4;stroke-dasharray:none;stroke-opacity:1"/></g></g></svg>