<svg xmlns="http://www.w3.org/2000/svg" xmlns:svg="http://www.w3.org/2000/svg" id="svg2322" width="22" height="22" version="1.1" viewBox="0 0 5.821 5.821"><metadata id="metadata2319"/><g id="layer1"><path id="path7" d="M 4.9768618,4.0131254 C 4.5215782,3.6733816 3.9149534,3.2078546 3.2689537,2.6480165 2.9720696,2.3316514 3.3135978,2.0808897 3.1910047,1.5311811 3.1482353,1.3397084 3.0018021,1.1451248 2.8575121,1.0668984 2.6682203,0.96396201 2.0790041,0.79284542 1.8093539,0.79373422 1.7658699,0.83053532 1.690421,0.91418222 1.6280093,0.98440663 1.6623853,1.0272525 2.2194571,1.4088646 2.267495,1.4461975 2.4137488,1.5594476 2.4633032,1.5595327 2.4063376,1.8040767 2.3421404,2.0795539 2.1870446,2.2995606 1.9454285,2.4460532 1.6116664,2.6481905 1.6872942,2.6047249 1.2254067,2.2692483 L 0.93352293,2.0623064 c -0.03384,0.073602 -0.080538,0.1472044 -0.13187869,0.2671196 0.13562869,0.2273849 0.60867896,0.8782492 0.81904446,0.9530944 0.3957252,0.1409813 0.761272,-0.1544065 0.9777972,0.061156 0.454032,0.4418803 0.8231498,0.757089 1.499153,1.6152492 0.2891158,0.3462316 1.1701238,-0.7287329 0.8792229,-0.9458002 z" class="fil0" style="clip-rule:evenodd;opacity:1;fill:none;fill-rule:evenodd;stroke:#111;stroke-width:.264583;stroke-miterlimit:4;stroke-dasharray:none;stroke-opacity:1;image-rendering:optimizeQuality;shape-rendering:geometricPrecision;text-rendering:geometricPrecision"/></g></svg>