<svg xmlns="http://www.w3.org/2000/svg" xmlns:svg="http://www.w3.org/2000/svg" xmlns:xlink="http://www.w3.org/1999/xlink" id="svg5424" width="28" height="28" version="1.1" viewBox="0 0 7.408 7.408"><defs id="defs5418"><linearGradient id="linearGradient3233" x1="4.498" x2="4.498" y1="7.833" y2=".878" gradientUnits="userSpaceOnUse" xlink:href="#linearGradient3239"/><linearGradient id="linearGradient3239"><stop style="stop-color:#262626;stop-opacity:1" id="stop3235" offset="0"/><stop style="stop-color:#474747;stop-opacity:1" id="stop3237" offset="1"/></linearGradient><linearGradient id="linearGradient5053" x1="2.22" x2="6.599" y1="2.22" y2="6.599" gradientUnits="userSpaceOnUse" xlink:href="#linearGradient5059"/><linearGradient id="linearGradient5059"><stop id="stop5055" offset="0" style="stop-color:#919191;stop-opacity:1"/><stop id="stop5057" offset="1" style="stop-color:#212121;stop-opacity:1"/></linearGradient></defs><metadata id="metadata5421"/><g id="layer1"><g style="display:inline" id="g6003" transform="matrix(0.85245896,0,0,0.85245896,-0.13012276,-0.13012271)"><path style="opacity:1;fill:url(#linearGradient3233);fill-opacity:1;stroke:#1a1a1a;stroke-width:.132292;stroke-linecap:round;stroke-linejoin:miter;stroke-miterlimit:4;stroke-dasharray:none;stroke-opacity:1;paint-order:normal" id="path2762" d="M 4.4679447,0.5291667 C 2.2877782,0.54563149 0.52910409,2.3176882 0.52916665,4.4979169 0.52932546,5.5504342 0.94756477,6.5597852 1.6918865,7.3039478 L 4.4979169,4.4979169 7.3039475,7.3039478 C 8.0482692,6.5597852 8.4665084,5.5504342 8.4666672,4.4979169 c 4e-7,-2.1918804 -1.7768699,-3.96875064 -3.9687503,-3.9687502 -0.005,-1.886e-5 -0.00999,-2.829e-5 -0.014986,-2.829e-5 -0.005,0 -0.00999,9.43e-6 -0.014986,2.829e-5 z"/><circle id="path2887" cx="4.498" cy="4.498" r="2.972" style="opacity:1;fill:url(#linearGradient5053);fill-opacity:1;stroke:#191919;stroke-width:.141522;stroke-linecap:round;stroke-linejoin:miter;stroke-miterlimit:4;stroke-dasharray:none;stroke-opacity:1;paint-order:normal"/></g></g></svg>