<svg xmlns="http://www.w3.org/2000/svg" xmlns:svg="http://www.w3.org/2000/svg" style="clip-rule:evenodd;fill-rule:evenodd;image-rendering:optimizeQuality;shape-rendering:geometricPrecision;text-rendering:geometricPrecision" id="svg10" width="16" height="16" version="1.1" viewBox="0 0 0.088 0.088" xml:space="preserve"><metadata id="metadata14"/><defs id="defs4"><style id="style2" type="text/css">.fil0{fill:gray}</style></defs><g id="Layer_x0020_1" transform="matrix(0.89288497,0,0,0.88891666,0,-2.8902105e-6)" style="stroke-width:1.12246215"><metadata id="CorelCorpID_0Corel-Layer"/><path id="path7" d="M 0.0977447,0.0757067 C 0.0870862,0.06771756 0.0728847,0.0567706 0.0577614,0.0436059 0.05081114,0.03616651 0.05880655,0.0302698 0.05593656,0.0173433 0.0549353,0.01284078 0.0515072,0.00826511 0.04812927,0.0064256 0.04369782,0.00400503 0.02990387,-1.881e-5 0.02359117,2.09e-6 c -0.001018,8.65386e-4 -0.0027843,0.00283236 -0.0042454,0.0044837 8.0477e-4,0.00100753 0.0138462,0.00998121 0.0149708,0.0108591 0.0034239,0.0026631 0.004584,0.0026651 0.0032504,0.0084156 -0.0015029,0.0064779 -0.0051338,0.0116514 -0.0107902,0.0150962 -0.0078136,0.0047533 -0.0060431,0.0037312 -0.0168562,-0.0041576 L 0.00308737,0.02983281 C 0.00229514,0.03156358 0.00120192,0.03329435 0,0.03611418 c 0.00317516,0.005347 0.01424959,0.0206522 0.01917439,0.0224122 0.0092642,0.0033152 0.0178219,-0.0036309 0.0228909,0.0014381 0.0106292,0.0103909 0.0192705,0.0178031 0.0350962,0.0379829 0.0067684,0.0081417 0.0273934,-0.0171363 0.02058321,-0.02224068 z" class="fil0" style="fill:gray;stroke-width:1.12246215"/></g></svg>