<svg xmlns="http://www.w3.org/2000/svg" xmlns:svg="http://www.w3.org/2000/svg" xmlns:xlink="http://www.w3.org/1999/xlink" id="svg2843" width="43.522" height="38.636" version="1.1"><title id="title2895">Clementine Music Player Logo</title><defs id="defs2845"><linearGradient id="linearGradient5911"><stop id="stop5913" offset="0" style="stop-color:#000;stop-opacity:1"/><stop id="stop5915" offset="1" style="stop-color:#fff;stop-opacity:1"/></linearGradient><linearGradient id="linearGradient5196"><stop id="stop5198" offset="0" style="stop-color:#fff;stop-opacity:1"/><stop id="stop5200" offset="1" style="stop-color:#fff;stop-opacity:0"/></linearGradient><clipPath id="clipPath5802" clipPathUnits="userSpaceOnUse"><path id="path5804" d="m 505.71875,535.46875 c -0.0913,0.006 -0.19131,0.0169 -0.28125,0.0312 -0.0955,0.0153 -0.1874,0.0375 -0.28125,0.0625 -0.0844,0.0225 -0.16817,0.0636 -0.25,0.0937 -0.003,0.005 -0.0284,-0.005 -0.0312,0 -0.79083,1.25489 -1.4864,2.70521 -1.71875,4.09375 -0.3364,2.01031 -0.60558,4.59838 -0.21875,7.65625 0.31871,2.60411 1.03448,5.62431 2.46875,8.90625 a 1.0096098,0.99067979 1.5151289 0 1 0,0.0625 c 0.85048,2.26648 2.57266,5.1072 5.8125,7.96875 0.0263,0.0232 0.0673,0.0393 0.0937,0.0625 0.36148,0.26611 0.70356,0.54293 1.0625,0.78125 3.08915,2.05084 5.83226,2.96661 7.9375,3.3125 a 1.0096098,0.99067979 1.5151289 0 1 0.0625,0 c 3.57728,0.79896 6.80296,0.94697 9.53125,0.78125 l -0.0312,0.0312 c 2.7977,-0.24267 5.93557,-0.42426 8.34375,-1.34375 1.4935,-0.57027 2.4005,-1.43904 3.1875,-2.34375 0.0506,-0.11958 0.12205,-0.22132 0.15625,-0.34375 0.0391,-0.28476 0.0785,-0.45542 0.0937,-0.53125 0.015,-0.0749 -7.3e-4,-0.0621 0,-0.0625 -6.8e-4,-4.2e-4 0.005,-0.018 0,-0.0937 -0.005,-0.0773 -8.1e-4,-0.21231 0,-0.5 -0.024,-0.1922 -0.0676,-0.40226 -0.125,-0.59375 -0.1152,-0.3785 -0.28887,-0.75013 -0.53125,-1.125 -0.47139,-0.72912 -1.16519,-1.44809 -2.0625,-2.15625 -1.66351,-1.31336 -3.99576,-2.58272 -6.71875,-3.8125 -2.31867,-1.04924 -4.86763,-2.00675 -7.34375,-3.0625 -1.72915,-0.84294 -3.09392,-1.28622 -3.59375,-1.6875 -0.0621,-0.0499 -0.0901,-0.10636 -0.125,-0.15625 -0.45281,-0.0886 -1.17461,-1.31192 -2.4375,-2.84375 -1.45775,-1.97251 -2.84904,-4.05918 -4.25,-5.96875 -1.6371,-2.2372 -3.21891,-4.12475 -4.71875,-5.40625 -0.80971,-0.69174 -1.59101,-1.19859 -2.34375,-1.5 -0.3873,-0.15511 -0.75608,-0.274 -1.125,-0.3125 -0.1869,-0.0199 -0.3809,-0.0121 -0.5625,0 z" style="fill:#241c1c;fill-opacity:1;stroke:none"/></clipPath><filter id="filter5814" color-interpolation-filters="sRGB"><feGaussianBlur id="feGaussianBlur5816" stdDeviation=".348"/></filter><clipPath id="clipPath6018" clipPathUnits="userSpaceOnUse"><path id="path6020" d="m 505.7188,535.46875 c -0.0913,0.006 -0.19131,0.0169 -0.28125,0.0312 -0.0854,0.0137 -0.16595,0.0411 -0.25,0.0625 -0.01,0.003 -0.0213,-0.003 -0.0312,0 -0.0938,0.025 -0.19066,0.0593 -0.28125,0.0937 -1.79515,0.60007 -4.41142,2.89744 -5.28125,4.875 -0.37352,0.81205 -0.6923,1.71506 -0.96875,2.8125 -0.51252,2.03105 -0.65384,4.74515 -0.25,7.9375 0.3298,2.69483 1.08634,5.84095 2.5625,9.21875 0.91661,2.44272 2.74644,5.44877 6.15625,8.4375 0.40045,0.29688 0.78917,0.57928 1.1875,0.84375 3.20319,2.12655 6.07314,3.06958 8.3125,3.4375 3.67177,0.81981 6.96924,0.98331 9.78125,0.8125 3.34236,-0.19132 6.12479,-0.83507 8.125,-1.75 0.84192,-0.45733 1.95625,-1.13921 2.5625,-1.6875 1.786,-1.61523 3.19802,-3.02233 3.96875,-4.25 0.031,-0.043 0.065,-0.0816 0.0937,-0.125 0.0859,-0.14409 0.15233,-0.26698 0.21875,-0.40625 0.0327,-0.0654 0.066,-0.1212 0.0937,-0.1875 0.0488,-0.11704 0.0914,-0.23009 0.125,-0.34375 0.009,-0.0679 0.0235,-0.0718 0.0312,-0.125 0.01,-0.0396 0.0234,-0.0858 0.0312,-0.125 0.0139,-0.0884 0.0233,-0.24156 0.0312,-0.28125 0.0149,-0.0743 -7.3e-4,-0.0622 0,-0.0625 -6.8e-4,-4.5e-4 0.004,-0.018 0,-0.0937 -0.005,-0.0773 -8.2e-4,-0.21231 0,-0.5 -0.024,-0.1922 -0.0676,-0.40226 -0.125,-0.59375 -0.1152,-0.3785 -0.28887,-0.75013 -0.53125,-1.125 -0.47138,-0.72912 -1.16539,-1.44783 -2.0625,-2.15625 -1.66351,-1.31335 -3.99576,-2.58272 -6.71875,-3.8125 -2.31868,-1.04924 -4.86763,-2.00674 -7.34375,-3.0625 -1.72915,-0.84294 -3.0941,-1.28598 -3.59375,-1.6875 -0.0621,-0.0499 -0.0901,-0.10636 -0.125,-0.15625 -0.45282,-0.0886 -1.1746,-1.31192 -2.4375,-2.84375 -1.45776,-1.97251 -2.84903,-4.05918 -4.25,-5.96875 -1.6371,-2.2372 -3.21894,-4.12471 -4.71875,-5.40625 -0.8097,-0.69174 -1.59101,-1.19859 -2.34375,-1.5 -0.38731,-0.15511 -0.75607,-0.27401 -1.125,-0.3125 -0.18689,-0.0199 -0.3809,-0.0121 -0.5625,0 z" style="fill:#fda864;fill-opacity:1;stroke:none"/></clipPath><linearGradient id="linearGradient6099" x1="553.214" x2="553.214" y1="586.1" y2="654.588" gradientTransform="matrix(1,0,0,1.302895,7.7925006,-220.9128)" gradientUnits="userSpaceOnUse" xlink:href="#linearGradient5911"/><mask id="mask6095" maskUnits="userSpaceOnUse"><rect style="fill:url(#linearGradient6099);stroke:none" id="rect6097" width="146.071" height="62.353" x="480.293" y="527.142"/></mask><radialGradient id="radialGradient6139" cx="520.734" cy="551.074" r="15.405" fx="520.734" fy="551.074" gradientUnits="userSpaceOnUse" xlink:href="#linearGradient5196"/><radialGradient id="radialGradient6141" cx="520.734" cy="551.074" r="15.405" fx="520.734" fy="551.074" gradientUnits="userSpaceOnUse" xlink:href="#linearGradient5196"/><radialGradient id="radialGradient3038" cx="520.734" cy="551.074" r="15.405" fx="520.734" fy="551.074" gradientUnits="userSpaceOnUse" xlink:href="#linearGradient5196"/><radialGradient id="radialGradient3056" cx="520.734" cy="551.074" r="15.405" fx="520.734" fy="551.074" gradientUnits="userSpaceOnUse" xlink:href="#linearGradient5196"/><radialGradient id="radialGradient3848" cx="520.734" cy="551.074" r="15.405" fx="520.734" fy="551.074" gradientUnits="userSpaceOnUse" xlink:href="#linearGradient5196"/><radialGradient id="radialGradient3046" cx="520.734" cy="551.074" r="15.405" fx="520.734" fy="551.074" gradientUnits="userSpaceOnUse" xlink:href="#linearGradient5196"/></defs><metadata id="metadata2848"/><g id="layer1" transform="translate(-498.141,-535.45653)"><path id="path2875" d="M 7.59375 0 C 7.5024057 0.0060692593 7.4024399 0.0168698 7.3125 0.03125 C 7.2271309 0.044954213 7.1465496 0.072367007 7.0625 0.09375 C 7.0525468 0.096282197 7.0411838 0.091106801 7.03125 0.09375 C 6.9374304 0.11871354 6.8405918 0.15307764 6.75 0.1875 C 6.7158764 0.20049035 6.689903 0.2356563 6.65625 0.25 C 4.8644988 0.89758935 2.2923894 3.1501645 1.4375 5.09375 C 1.06398 5.9058 0.7452 6.80881 0.46875 7.90625 C -0.04377 9.9373 -0.15384 12.6514 0.25 15.84375 C 0.5798 18.53858 1.30509 21.65345 2.78125 25.03125 C 3.69786 27.47397 5.52769 30.51127 8.9375 33.5 C 9.33795 33.79688 9.72667 34.04803 10.125 34.3125 C 13.32819 36.43905 16.22939 37.41333 18.46875 37.78125 C 22.14052 38.60106 25.43799 38.76456 28.25 38.59375 C 31.59236 38.40243 34.34354 37.75868 36.34375 36.84375 C 37.18567 36.38642 38.3 35.67329 38.90625 35.125 C 40.690124 33.511689 42.103609 32.132877 42.875 30.90625 C 42.882593 30.894175 42.898785 30.887041 42.90625 30.875 C 42.929719 30.84243 42.946536 30.814087 42.96875 30.78125 C 42.976247 30.768678 42.992647 30.762535 43 30.75 C 43.08373 30.623092 43.154117 30.505705 43.21875 30.375 C 43.308532 30.195301 43.385414 29.998905 43.4375 29.8125 C 43.457035 29.670115 43.455737 29.644496 43.46875 29.5625 C 43.481763 29.480504 43.492385 29.350413 43.5 29.3125 C 43.514929 29.238175 43.530516 29.219095 43.53125 29.21875 C 43.530571 29.218303 43.535737 29.23202 43.53125 29.15625 C 43.526673 29.078951 43.49918 28.912686 43.5 28.625 C 43.476035 28.432796 43.432416 28.253993 43.375 28.0625 C 43.259796 27.684 43.086132 27.312369 42.84375 26.9375 C 42.372366 26.208379 41.678356 25.489674 40.78125 24.78125 C 39.117743 23.467904 36.785487 22.198534 34.0625 20.96875 C 31.743824 19.91951 29.226115 18.930756 26.75 17.875 C 25.020852 17.03206 23.655897 16.589023 23.15625 16.1875 C 23.094114 16.137567 23.034894 16.081138 23 16.03125 C 22.547184 15.942618 21.825399 14.750577 20.5625 13.21875 C 19.104742 11.246243 17.71347 9.1283167 16.3125 7.21875 C 14.675402 4.9815487 13.124812 3.0940398 11.625 1.8125 C 10.815297 1.1207599 10.033985 0.61391126 9.28125 0.3125 C 8.893943 0.15738766 8.4939264 0.069744921 8.125 0.03125 C 7.9381122 0.01136253 7.7753487 -0.012066106 7.59375 0 z" transform="translate(498.141,535.45653)" style="fill:gray;fill-opacity:1;stroke:none"/><flowRoot style="font-size:4px;font-style:normal;font-variant:normal;font-weight:400;font-stretch:normal;fill:#fff;fill-opacity:1;stroke:none;font-family:Duepuntozero;-inkscape-font-specification:Duepuntozero" id="flowRoot6185" transform="translate(407.56824,479.61896)" xml:space="preserve"><flowRegion id="flowRegion6187"><rect style="font-size:4px;font-style:normal;font-variant:normal;font-weight:400;font-stretch:normal;fill:#fff;font-family:Duepuntozero;-inkscape-font-specification:Duepuntozero" id="rect6189" width="67.09" height="8.788" x="137.609" y="85.738"/></flowRegion><flowPara id="flowPara6191"/></flowRoot></g></svg>