<svg xmlns="http://www.w3.org/2000/svg" xmlns:svg="http://www.w3.org/2000/svg" id="svg3970" width="16" height="16" version="1.1" style="enable-background:new"><metadata id="metadata3975"/><g id="layer1" transform="translate(-369,-293.79076)" style="opacity:1"><rect style="display:inline;opacity:0;fill:#fff;fill-opacity:1;stroke:none;stroke-width:1.33333325" id="rect6036" width="16" height="16" x="369" y="293.791"/><rect id="rect6042" width="8.915" height="8.915" x="48.732" y="475.521" transform="matrix(0.70709402,-0.70711954,0.70709402,0.70711954,0,0)" style="color:#000;display:inline;overflow:visible;visibility:visible;fill:none;stroke:gray;stroke-width:1.39242852;stroke-linecap:round;stroke-linejoin:round;stroke-miterlimit:4;stroke-dasharray:none;stroke-dashoffset:0;stroke-opacity:1;marker:none;enable-background:accumulate"/><path id="path6065" d="m 377.69637,306.86754 a 3.8291097,3.8292482 0 0 1 0.7769,-4.30674 3.8291097,3.8292482 0 0 1 4.30863,-0.76554" style="color:#000;display:inline;overflow:visible;visibility:visible;fill:none;stroke:gray;stroke-width:1;stroke-linecap:round;stroke-linejoin:round;stroke-miterlimit:4;stroke-dasharray:none;stroke-dashoffset:0;stroke-opacity:1;marker:none;enable-background:accumulate"/><path style="color:#000;display:inline;overflow:visible;visibility:visible;fill:gray;stroke:none;stroke-width:.69621432;stroke-linecap:round;stroke-linejoin:round;stroke-miterlimit:4;stroke-dasharray:none;stroke-dashoffset:0;stroke-opacity:1;marker:none;enable-background:accumulate" id="path6067" d="m -376.42254,-296.51066 a 3.8291097,3.8292482 0 0 1 0.26876,-5.27321 3.8291097,3.8292482 0 0 1 5.27986,0.008 l -2.64424,2.7696 z" transform="scale(-1)"/><circle id="path6069" cx="375.38" cy="302.715" r="1.1" style="color:#000;display:inline;overflow:visible;visibility:visible;fill:gray;fill-opacity:1;stroke:none;stroke-width:1.0126636;marker:none;enable-background:accumulate"/><circle style="color:#000;display:inline;overflow:visible;visibility:visible;fill:gray;fill-opacity:1;stroke:none;stroke-width:1.0126636;marker:none;enable-background:accumulate" id="path6071" cx="377.361" cy="300.474" r="1.1"/><circle style="color:#000;display:inline;overflow:visible;visibility:visible;fill:gray;fill-opacity:1;stroke:none;stroke-width:1.0126636;marker:none;enable-background:accumulate" id="path6075" cx="377.254" cy="297.621" r="1.1"/><path style="color:#000;display:inline;overflow:visible;visibility:visible;fill:gray;fill-opacity:1;stroke:none;stroke-width:1.0126636;marker:none;enable-background:accumulate" id="path6077" d="m 377.93924,303.74796 a 1.1,1.1 0 0 1 -1.35978,-0.73169 1.1,1.1 0 0 1 0.71158,-1.37041 1.1,1.1 0 0 1 1.38074,0.69134"/><path style="color:#000;display:inline;overflow:visible;visibility:visible;fill:gray;fill-opacity:1;stroke:none;stroke-width:1.0126636;marker:none;enable-background:accumulate" id="path6081" d="m 379.38148,301.9924 a 1.1,1.1 0 0 1 -0.19125,-1.47553 1.1,1.1 0 0 1 1.45387,-0.3163 1.1,1.1 0 0 1 0.43904,1.42163"/><path id="path6083" d="m 377.78652,306.11391 a 1.1,1.1 0 0 1 -1.24047,0.44373 1.1,1.1 0 0 1 -0.77641,-1.06436 1.1,1.1 0 0 1 0.80136,-1.0457 1.1,1.1 0 0 1 1.22963,0.47294" style="color:#000;display:inline;overflow:visible;visibility:visible;fill:gray;fill-opacity:1;stroke:none;stroke-width:1.0126636;marker:none;enable-background:accumulate"/><path id="path6085" d="m -376.72224,-296.51077 a 4.0359373,4.041358 0 0 1 0.28328,-5.5653 4.0359373,4.041358 0 0 1 5.56504,0.009 l -2.78706,2.92301 z" transform="scale(-1)" style="color:#000;display:inline;overflow:visible;visibility:visible;fill:gray;fill-opacity:1;stroke:none;stroke-width:.73429936;marker:none;enable-background:accumulate"/><ellipse style="color:#000;clip-rule:nonzero;display:inline;overflow:visible;visibility:visible;opacity:1;isolation:auto;mix-blend-mode:normal;color-interpolation:sRGB;color-interpolation-filters:linearRGB;solid-color:#000;solid-opacity:1;fill:#000;fill-opacity:1;fill-rule:nonzero;stroke:none;stroke-width:.69599998;stroke-linecap:round;stroke-linejoin:round;stroke-miterlimit:4;stroke-dasharray:none;stroke-dashoffset:0;stroke-opacity:1;paint-order:normal;color-rendering:auto;image-rendering:auto;shape-rendering:auto;text-rendering:auto;enable-background:accumulate" id="path921" cx="377.674" cy="298.722" rx=".006" ry=".058"/></g></svg>