<svg xmlns="http://www.w3.org/2000/svg" xmlns:svg="http://www.w3.org/2000/svg" id="svg3970" width="12" height="12" version="1.1"><metadata id="metadata3975"/><g id="layer1" transform="translate(-369,-297.79076)"><rect style="opacity:0;fill:#fff;fill-opacity:1;stroke:none;display:inline" id="rect6036" width="12" height="12" x="369" y="297.791"/><rect id="rect6042" width="6.402" height="6.402" x="47.158" y="476.77" transform="matrix(0.70710678,-0.70710678,0.70710678,0.70710678,0,0)" style="color:#000;fill:none;stroke:gray;stroke-width:.99999994000000003;stroke-linecap:round;stroke-linejoin:round;stroke-miterlimit:4;stroke-opacity:1;stroke-dasharray:none;stroke-dashoffset:0;marker:none;visibility:visible;display:inline;overflow:visible;enable-background:accumulate"/><path id="path6065" d="m 809.40926,221.7343 a 6.5625,6.5625 0 0 1 8.71581,-8.69278" transform="matrix(0.41904762,0,0,0.41904762,36.31905,214.50967)" style="color:#000;fill:none;stroke:gray;stroke-width:1.19318187000000009;stroke-linecap:round;stroke-linejoin:round;stroke-miterlimit:4;stroke-opacity:1;stroke-dasharray:none;stroke-dashoffset:0;marker:none;visibility:visible;display:inline;overflow:visible;enable-background:accumulate"/><path style="color:#000;fill:gray;stroke:gray;stroke-width:1.19318187000000009;stroke-linecap:round;stroke-linejoin:round;stroke-miterlimit:4;stroke-opacity:1;stroke-dasharray:none;stroke-dashoffset:0;marker:none;visibility:visible;display:inline;overflow:visible;enable-background:accumulate" id="path6067" d="m 810.39734,223.2766 a 6.5625,6.5625 0 0 1 9.50947,-9.02308 L 815.375,219 z" transform="matrix(-0.41904762,0,0,-0.41904762,714.1803,393.55253)"/><path id="path6069" d="m 807.75,216.1875 a 0.6875,0.6875 0 1 1 -1.375,0 0.6875,0.6875 0 1 1 1.375,0 z" transform="matrix(0.72725935,0,0,0.72726915,-213.44374,147.55459)" style="color:#000;fill:gray;fill-opacity:1;stroke:none;stroke-width:1;marker:none;visibility:visible;display:inline;overflow:visible;enable-background:accumulate"/><path style="color:#000;fill:gray;fill-opacity:1;stroke:none;stroke-width:1;marker:none;visibility:visible;display:inline;overflow:visible;enable-background:accumulate" id="path6071" d="m 807.75,216.1875 a 0.6875,0.6875 0 1 1 -1.375,0 0.6875,0.6875 0 1 1 1.375,0 z" transform="matrix(0.72725935,0,0,0.72726915,-212.19374,146.77335)"/><path id="path6073" d="m 807.75,216.1875 a 0.6875,0.6875 0 1 1 -1.375,0 0.6875,0.6875 0 1 1 1.375,0 z" transform="matrix(0.72725935,0,0,0.72726915,-211.44374,145.5546)" style="color:#000;fill:gray;fill-opacity:1;stroke:none;stroke-width:1;marker:none;visibility:visible;display:inline;overflow:visible;enable-background:accumulate"/><path style="color:#000;fill:gray;fill-opacity:1;stroke:none;stroke-width:1;marker:none;visibility:visible;display:inline;overflow:visible;enable-background:accumulate" id="path6075" d="m 807.75,216.1875 a 0.6875,0.6875 0 1 1 -1.375,0 0.6875,0.6875 0 1 1 1.375,0 z" transform="matrix(0.72725935,0,0,0.72726915,-211.44374,144.0546)"/><path style="color:#000;fill:gray;fill-opacity:1;stroke:none;stroke-width:1;marker:none;visibility:visible;display:inline;overflow:visible;enable-background:accumulate" id="path6077" d="m 807.75,216.1875 a 0.6875,0.6875 0 1 1 -1.375,0 0.6875,0.6875 0 1 1 1.375,0 z" transform="matrix(0.72725935,0,0,0.72726915,-211.84999,148.05459)"/><path id="path6079" d="m 807.75,216.1875 a 0.6875,0.6875 0 1 1 -1.375,0 0.6875,0.6875 0 1 1 1.375,0 z" transform="matrix(0.72725935,0,0,0.72726915,-211.00624,146.80459)" style="color:#000;fill:gray;fill-opacity:1;stroke:none;stroke-width:1;marker:none;visibility:visible;display:inline;overflow:visible;enable-background:accumulate"/><path style="color:#000;fill:gray;fill-opacity:1;stroke:none;stroke-width:1;marker:none;visibility:visible;display:inline;overflow:visible;enable-background:accumulate" id="path6081" d="m 807.75,216.1875 a 0.6875,0.6875 0 1 1 -1.375,0 0.6875,0.6875 0 1 1 1.375,0 z" transform="matrix(0.72725935,0,0,0.72726915,-209.72499,146.11709)"/><path id="path6083" d="m 807.75,216.1875 a 0.6875,0.6875 0 1 1 -1.375,0 0.6875,0.6875 0 1 1 1.375,0 z" transform="matrix(0.72725935,0,0,0.72726915,-212.03749,149.49209)" style="color:#000;fill:gray;fill-opacity:1;stroke:none;stroke-width:1;marker:none;visibility:visible;display:inline;overflow:visible;enable-background:accumulate"/><path id="path6085" d="m 810.39734,223.2766 a 6.5625,6.5625 0 0 1 9.50947,-9.02308 L 815.375,219 z" transform="matrix(-0.41904762,0,0,-0.41904762,714.1803,393.55253)" style="color:#000;fill:gray;fill-opacity:1;stroke:none;stroke-width:1.19318187000000009;marker:none;visibility:visible;display:inline;overflow:visible;enable-background:accumulate"/></g></svg>