<svg xmlns="http://www.w3.org/2000/svg" xmlns:svg="http://www.w3.org/2000/svg" id="svg3970" width="12" height="12" version="1.1" style="enable-background:new"><metadata id="metadata3975"/><g id="layer1" transform="translate(-369,-297.79076)" style="opacity:1"><rect style="display:inline;opacity:0;fill:#fff;fill-opacity:1;stroke:none;stroke-width:1" id="rect6036" width="12" height="12" x="369" y="297.791"/><rect id="rect6042" width="6.368" height="6.368" x="47.162" y="476.794" transform="matrix(0.70711588,-0.70709768,0.70711588,0.70709768,0,0)" style="color:#000;display:inline;overflow:visible;visibility:visible;fill:none;stroke:gray;stroke-width:1;stroke-linecap:round;stroke-linejoin:round;stroke-miterlimit:4;stroke-dasharray:none;stroke-dashoffset:0;stroke-opacity:1;marker:none;enable-background:accumulate"/><path id="path6065" d="m 375.49789,307.41723 a 2.7352109,2.7351406 0 0 1 0.55496,-3.0762 2.7352109,2.7351406 0 0 1 3.07774,-0.54681" style="color:#000;display:inline;overflow:visible;visibility:visible;fill:none;stroke:gray;stroke-width:1;stroke-linecap:round;stroke-linejoin:round;stroke-miterlimit:4;stroke-dasharray:none;stroke-dashoffset:0;stroke-opacity:1;marker:none;enable-background:accumulate"/><path style="color:#000;display:inline;overflow:visible;visibility:visible;fill:gray;stroke:none;stroke-width:.49730462;stroke-linecap:round;stroke-linejoin:round;stroke-miterlimit:4;stroke-dasharray:none;stroke-dashoffset:0;stroke-opacity:1;marker:none;enable-background:accumulate" id="path6067" d="m -374.58793,-300.01959 a 2.7352109,2.7351406 0 0 1 0.19198,-3.76652 2.7352109,2.7351406 0 0 1 3.77151,0.006 l -1.88884,1.97826 z" transform="scale(-1)"/><ellipse id="path6069" cx="373.843" cy="304.451" rx=".786" ry=".786" style="color:#000;display:inline;overflow:visible;visibility:visible;fill:gray;fill-opacity:1;stroke:none;stroke-width:.72334373;marker:none;enable-background:accumulate"/><ellipse style="color:#000;display:inline;overflow:visible;visibility:visible;fill:gray;fill-opacity:1;stroke:none;stroke-width:.72334373;marker:none;enable-background:accumulate" id="path6071" cx="375.258" cy="302.85" rx=".786" ry=".786"/><ellipse style="color:#000;display:inline;overflow:visible;visibility:visible;fill:gray;fill-opacity:1;stroke:none;stroke-width:.72334373;marker:none;enable-background:accumulate" id="path6075" cx="375.182" cy="300.813" rx=".786" ry=".786"/><path style="color:#000;display:inline;overflow:visible;visibility:visible;fill:gray;fill-opacity:1;stroke:none;stroke-width:.72334373;marker:none;enable-background:accumulate" id="path6077" d="m 375.67135,305.18902 a 0.78575236,0.78570378 0 0 1 -0.97132,-0.52262 0.78575236,0.78570378 0 0 1 0.5083,-0.97885 0.78575236,0.78570378 0 0 1 0.98629,0.4938"/><path style="color:#000;display:inline;overflow:visible;visibility:visible;fill:gray;fill-opacity:1;stroke:none;stroke-width:.72334373;marker:none;enable-background:accumulate" id="path6081" d="m 376.70158,303.93507 a 0.78575236,0.78570378 0 0 1 -0.13661,-1.05394 0.78575236,0.78570378 0 0 1 1.03853,-0.22592 0.78575236,0.78570378 0 0 1 0.31361,1.01543"/><path id="path6083" d="m 375.56219,306.87892 a 0.78575236,0.78570378 0 0 1 -0.88609,0.31695 0.78575236,0.78570378 0 0 1 -0.5546,-0.76024 0.78575236,0.78570378 0 0 1 0.57242,-0.74692 0.78575236,0.78570378 0 0 1 0.87835,0.33781" style="color:#000;display:inline;overflow:visible;visibility:visible;fill:gray;fill-opacity:1;stroke:none;stroke-width:.72334373;marker:none;enable-background:accumulate"/><path id="path6085" d="m -374.80199,-300.0197 a 2.882952,2.8866456 0 0 1 0.20235,-3.97516 2.882952,2.8866456 0 0 1 3.97523,0.006 l -1.99085,2.08783 z" transform="scale(-1)" style="color:#000;display:inline;overflow:visible;visibility:visible;fill:gray;fill-opacity:1;stroke:none;stroke-width:.52450866;marker:none;enable-background:accumulate"/><ellipse style="color:#000;clip-rule:nonzero;display:inline;overflow:visible;visibility:visible;opacity:1;isolation:auto;mix-blend-mode:normal;color-interpolation:sRGB;color-interpolation-filters:linearRGB;solid-color:#000;solid-opacity:1;fill:#000;fill-opacity:1;fill-rule:nonzero;stroke:none;stroke-width:.49715143;stroke-linecap:round;stroke-linejoin:round;stroke-miterlimit:4;stroke-dasharray:none;stroke-dashoffset:0;stroke-opacity:1;paint-order:normal;color-rendering:auto;image-rendering:auto;shape-rendering:auto;text-rendering:auto;enable-background:accumulate" id="path921" cx="375.482" cy="301.599" rx=".004" ry=".041"/></g></svg>