<svg xmlns="http://www.w3.org/2000/svg" xmlns:svg="http://www.w3.org/2000/svg" id="svg3829" width="16" height="16" version="1.1"><metadata id="metadata3834"/><g id="layer1" transform="translate(-388.28571,-622.38001)"><rect style="display:inline;opacity:0;fill:gray;fill-opacity:0;stroke:none;stroke-width:.49851313" id="rect10647-9" width="16" height="16" x="388.321" y="622.38"/><path id="path10754-3" d="m 392.78571,637.37289 v -1.49288" style="fill:gray;fill-opacity:0;stroke:gray;stroke-width:1;stroke-linecap:round;stroke-linejoin:miter;stroke-miterlimit:4;stroke-dasharray:none;stroke-opacity:1"/><path style="fill:gray;fill-opacity:0;stroke:gray;stroke-width:1;stroke-linecap:round;stroke-linejoin:miter;stroke-miterlimit:4;stroke-dasharray:none;stroke-opacity:1" id="path10756-0" d="m 394.78571,637.37289 v -1.49288"/><g id="g4534"><path style="color:#000;display:inline;overflow:visible;visibility:visible;fill:gray;fill-opacity:0;fill-rule:nonzero;stroke:gray;stroke-width:1;stroke-linecap:round;stroke-linejoin:round;stroke-miterlimit:4;stroke-dasharray:none;stroke-dashoffset:0;stroke-opacity:1;marker:none;enable-background:accumulate" id="path10704-0" d="m 391.51299,627.88006 h -2.72728 v 7.99995 h 2 v 2 h 6 v -2 h 7 v -7.99986 h -1.14631"/><g id="g4527"><path id="path10686-6" d="m 395.78576,631.38001 v -5.5 h 4.9999 v 5.5" style="color:#000;display:inline;overflow:visible;visibility:visible;fill:gray;fill-opacity:0;stroke:gray;stroke-width:1;stroke-linecap:round;stroke-linejoin:round;stroke-miterlimit:.2;stroke-dasharray:none;stroke-dashoffset:0;stroke-opacity:1;marker:none;enable-background:accumulate"/><path style="color:#000;clip-rule:nonzero;display:inline;overflow:visible;visibility:visible;opacity:1;isolation:auto;mix-blend-mode:normal;color-interpolation:sRGB;color-interpolation-filters:linearRGB;solid-color:#000;solid-opacity:1;fill:gray;fill-opacity:1;fill-rule:nonzero;stroke:none;stroke-width:1;stroke-linecap:round;stroke-linejoin:round;stroke-miterlimit:4;stroke-dasharray:none;stroke-dashoffset:0;stroke-opacity:1;paint-order:normal;color-rendering:auto;image-rendering:auto;shape-rendering:auto;text-rendering:auto;enable-background:accumulate" id="path4541" d="M 11 7 A 2 2 0 0 0 9 9 A 2 2 0 0 0 11 11 A 2 2 0 0 0 13 9 A 2 2 0 0 0 11 7 z M 10.5 8 L 11.5 8 C 11.777 8 12 8.223 12 8.5 L 12 9.5 C 12 9.777 11.777 10 11.5 10 L 10.5 10 C 10.223 10 10 9.777 10 9.5 L 10 8.5 C 10 8.223 10.223 8 10.5 8 z" transform="translate(388.28571,622.38001)"/><path style="color:#000;clip-rule:nonzero;display:inline;overflow:visible;visibility:visible;opacity:1;isolation:auto;mix-blend-mode:normal;color-interpolation:sRGB;color-interpolation-filters:linearRGB;solid-color:#000;solid-opacity:1;fill:gray;fill-opacity:1;fill-rule:nonzero;stroke:none;stroke-width:1;stroke-linecap:round;stroke-linejoin:round;stroke-miterlimit:4;stroke-dasharray:none;stroke-dashoffset:0;stroke-opacity:1;paint-order:normal;color-rendering:auto;image-rendering:auto;shape-rendering:auto;text-rendering:auto;enable-background:accumulate" id="path4541-3" d="M 6 7 A 2 2 0 0 0 4 9 A 2 2 0 0 0 6 11 A 2 2 0 0 0 8 9 A 2 2 0 0 0 6 7 z M 5.5 8 L 6.5 8 C 6.777 8 7 8.223 7 8.5 L 7 9.5 C 7 9.777 6.777 10 6.5 10 L 5.5 10 C 5.223 10 5 9.777 5 9.5 L 5 8.5 C 5 8.223 5.223 8 5.5 8 z" transform="translate(388.28571,622.38001)"/></g></g></g></svg>