<svg xmlns="http://www.w3.org/2000/svg" xmlns:svg="http://www.w3.org/2000/svg" id="svg3829" width="12" height="12" version="1.1"><metadata id="metadata3834"/><g id="layer1" transform="translate(-388.28571,-626.38001)"><rect style="display:inline;opacity:0;fill:gray;fill-opacity:0;stroke:none;stroke-width:.49851313" id="rect10647-9" width="11.739" height="11.868" x="388.442" y="626.38"/><path style="fill:gray;fill-opacity:0;stroke:gray;stroke-width:1;stroke-linecap:round;stroke-linejoin:miter;stroke-miterlimit:4;stroke-dasharray:none;stroke-opacity:1" id="path10756-0" d="m 392.78571,637.88001 v -2"/><g id="g849"><path style="color:#000;display:inline;overflow:visible;visibility:visible;fill:gray;fill-opacity:0;fill-rule:nonzero;stroke:gray;stroke-width:1;stroke-linecap:round;stroke-linejoin:round;stroke-miterlimit:4;stroke-dasharray:none;stroke-dashoffset:0;stroke-opacity:1;marker:none;enable-background:accumulate" id="path10704-0" d="m 390.78401,630.88001 h -2.00103 v 5 h 2.00273 v 2 h 4 v -2 h 5 v -5 h -1"/><g id="g842"><path id="path10686-6" d="m 393.78571,632.88001 v -4 h 4 v 4" style="color:#000;display:inline;overflow:visible;visibility:visible;fill:gray;fill-opacity:0;stroke:gray;stroke-width:1;stroke-linecap:round;stroke-linejoin:round;stroke-miterlimit:.2;stroke-dasharray:none;stroke-dashoffset:0;stroke-opacity:1;marker:none;enable-background:accumulate"/><path style="color:#000;clip-rule:nonzero;display:inline;overflow:visible;visibility:visible;opacity:1;isolation:auto;mix-blend-mode:normal;color-interpolation:sRGB;color-interpolation-filters:linearRGB;solid-color:#000;solid-opacity:1;fill:gray;fill-opacity:1;fill-rule:nonzero;stroke:none;stroke-width:1;stroke-linecap:round;stroke-linejoin:round;stroke-miterlimit:4;stroke-dasharray:none;stroke-dashoffset:0;stroke-opacity:1;paint-order:normal;color-rendering:auto;image-rendering:auto;shape-rendering:auto;text-rendering:auto;enable-background:accumulate" id="path4541" d="M 8.5 5 A 1.5 1.5 0 0 0 7 6.5 A 1.5 1.5 0 0 0 8.5 8 A 1.5 1.5 0 0 0 10 6.5 A 1.5 1.5 0 0 0 8.5 5 z M 8.1992188 6 L 8.8007812 6 C 8.9115813 6 9 6.0884187 9 6.1992188 L 9 6.8007812 C 9 6.9115813 8.9115813 7 8.8007812 7 L 8.1992188 7 C 8.0884187 7 8 6.9115813 8 6.8007812 L 8 6.1992188 C 8 6.0884187 8.0884187 6 8.1992188 6 z" transform="translate(388.28571,626.38001)"/><path style="color:#000;clip-rule:nonzero;display:inline;overflow:visible;visibility:visible;opacity:1;isolation:auto;mix-blend-mode:normal;color-interpolation:sRGB;color-interpolation-filters:linearRGB;solid-color:#000;solid-opacity:1;fill:gray;fill-opacity:1;fill-rule:nonzero;stroke:none;stroke-width:1;stroke-linecap:round;stroke-linejoin:round;stroke-miterlimit:4;stroke-dasharray:none;stroke-dashoffset:0;stroke-opacity:1;paint-order:normal;color-rendering:auto;image-rendering:auto;shape-rendering:auto;text-rendering:auto;enable-background:accumulate" id="path4541-3" d="M 4.5 5 A 1.5 1.5 0 0 0 3 6.5 A 1.5 1.5 0 0 0 4.5 8 A 1.5 1.5 0 0 0 6 6.5 A 1.5 1.5 0 0 0 4.5 5 z M 4.1992188 6 L 4.8007812 6 C 4.9115813 6 5 6.0884187 5 6.1992188 L 5 6.8007812 C 5 6.9115813 4.9115813 7 4.8007812 7 L 4.1992188 7 C 4.0884187 7 4 6.9115813 4 6.8007812 L 4 6.1992188 C 4 6.0884187 4.0884187 6 4.1992188 6 z" transform="translate(388.28571,626.38001)"/></g></g></g></svg>